<svg
   width="3000"
   height="3000"
   viewBox="0 0 793.74998 793.75"
   version="1.1"
   id="svg1"
   xmlns="http://www.w3.org/2000/svg">
  <defs id="defs1" />
  <g id="layer1">
    <g id="layer2" style="display:inline">
      <rect
         style="fill:none;fill-opacity:1;stroke:currentColor;stroke-width:19.4;stroke-linecap:round;stroke-linejoin:round;stroke-dasharray:none;stroke-opacity:1"
         id="rect18"
         width="769.94922"
         height="769.94922"
         x="13.425436"
         y="10.375372"
         ry="365.004" />
    </g>
    <path
       d="m 531.58771,772.35751 c 0.012,-0.77831 0.0181,-1.55818 0.0181,-2.33939 0,-81.53179 -65.88042,-147.4122 -147.41219,-147.4122 -79.06282,0 -143.40787,61.95089 -147.23235,140.04985 47.0582,20.02442 98.9123,31.09423 153.44696,31.09423 h 12.93358 c 44.96629,0 88.11035,-7.52607 128.24592,-21.39249 z"
       style="display:none;fill:currentColor;stroke-width:10;stroke-linecap:round;stroke-linejoin:round"
       id="path18" />
    <path
       d="M 565.56238,758.79348 A 181.71575,181.71575 0 0 0 384.19309,588.30208 181.71575,181.71575 0 0 0 203.97463,746.74047 c 4.4809,2.42891 9.01509,4.7725 13.60072,7.02902 8.19146,-84.73283 79.76539,-151.15098 166.61825,-151.15098 90.60648,2e-5 164.58463,72.283 167.32106,162.23558 4.73008,-1.93095 9.41363,-3.95195 14.04772,-6.06061 z"
       style="display:none;fill:currentColor;stroke-width:10;stroke-linecap:round;stroke-linejoin:round"
       id="path16" />
    <path
       d="M 390.40821,0 C 174.12207,0 0,174.12207 0,390.40821 v 12.93358 C 0,521.42671 51.902304,626.94333 134.2316,698.4168 a 260.01471,260.01471 0 0 1 9.08213,-26.29969 l -41.66515,-34.80097 25.29096,-43.80611 50.69458,18.58077 a 260.01471,260.01471 0 0 1 46.90153,-47.29737 l -18.68207,-50.97105 43.8056,-25.29148 34.61184,41.43882 a 260.01471,260.01471 0 0 1 64.2674,-17.51004 l 9.30589,-53.48356 h 50.58244 l 9.25525,53.19262 a 260.01471,260.01471 0 0 1 64.41209,16.9695 l 34.80097,-41.66515 43.80612,25.29148 -18.58078,50.69406 a 260.01471,260.01471 0 0 1 47.29737,46.90205 l 50.97105,-18.68258 25.29148,43.80559 -41.43882,34.61236 a 260.01471,260.01471 0 0 1 14.1826,45.38534 C 732.884,644.35506 793.75,531.21777 793.75,403.34179 V 390.40821 C 793.75,174.12207 619.62793,0 403.34179,0 Z"
       style="display:none;fill:currentColor;stroke-width:10;stroke-linecap:round;stroke-linejoin:round"
       id="path14" />
    <path
       d="M 551.51466,764.85409 C 548.77823,674.90151 474.80008,602.61853 384.1936,602.61851 c -86.85286,0 -158.42679,66.41815 -166.61825,151.15098 6.36503,3.13214 12.82892,6.09613 19.3859,8.88628 3.82448,-78.09896 68.16953,-140.04985 147.23235,-140.04985 81.53177,0 147.41219,65.88041 147.41219,147.4122 0,0.78121 -0.006,1.56108 -0.0181,2.33939 6.72887,-2.32476 13.37277,-4.82783 19.92695,-7.50342 z"
       style="display:inline;fill:currentColor;stroke-width:0.264421"
       id="path17" />
    <path
       d="m 638.42408,715.48139 a 260.01471,260.01471 0 0 0 -14.1826,-45.38534 L 665.6803,635.48369 640.38882,591.6781 589.41777,610.36068 A 260.01471,260.01471 0 0 0 542.1204,563.45863 l 18.58078,-50.69406 -43.80612,-25.29148 -34.80097,41.66515 A 260.01471,260.01471 0 0 0 417.682,512.16874 l -9.25525,-53.19262 h -50.58244 l -9.30589,53.48356 a 260.01471,260.01471 0 0 0 -64.2674,17.51004 l -34.61184,-41.43882 -43.8056,25.29148 18.68207,50.97105 a 260.01471,260.01471 0 0 0 -46.90153,47.29737 l -50.69458,-18.58077 -25.29096,43.80611 41.66515,34.80097 a 260.01471,260.01471 0 0 0 -9.08213,26.29969 c 21.32985,18.51732 44.70195,34.74991 69.74303,48.32367 a 181.71575,181.71575 0 0 1 180.21846,-158.43839 181.71575,181.71575 0 0 1 181.36929,170.4914 c 25.94814,-11.80729 50.3581,-26.36735 72.8617,-43.31209 z"
       style="display:inline;fill:currentColor;stroke-width:0.264421"
       id="path15" />
    <path
       id="rect2"
       style="display:inline;fill:currentColor;stroke:none;stroke-width:2.37864;stroke-linecap:round;stroke-linejoin:round"
       d="M 205.85358,116.74998 C 284.73776,283.6353 310.72895,247.35699 306.42729,311.05181 302.12565,374.74665 246.20304,450.19369 205.85358,513.82238 294.22374,484.92671 328.1422,364.93655 383.88923,363.5468 439.63627,362.15705 500.25138,508.29144 561.04844,513.82238 522.78425,448.4311 468.15717,370.54351 466.89036,306.5539 c -1.2668,-63.9896 31.43747,-22.95192 94.15808,-189.80392 -87.90385,88.81062 -134.92519,92.79294 -179.19423,92.67703 a 14.897879,13.656388 0 0 1 14.81305,13.65601 14.897879,13.656388 0 0 1 -14.8978,13.65653 l 24.63881,58.43985 -24.63881,23.61406 -24.6388,-23.61406 24.6388,-58.43985 a 14.897879,13.656388 0 0 1 -14.8978,-13.65653 14.897879,13.656388 0 0 1 14.8978,-13.65653 c -44.29374,-0.12118 -85.85553,-4.29404 -175.91588,-92.67651 z" />
    <circle
       style="display:inline;fill:currentColor;stroke:none;stroke-width:2.64583;stroke-linecap:round;stroke-linejoin:round"
       id="path2"
       cx="379.242"
       cy="116.74997"
       r="77.285683" />
  </g>
</svg>
