<?xml version="1.0" encoding="UTF-8" standalone="no"?>
<!-- Created with Inkscape (http://www.inkscape.org/) -->

<svg
   width="3000"
   height="3000"
   viewBox="0 0 793.74998 793.75"
   version="1.1"
   id="svg1"
   xmlns="http://www.w3.org/2000/svg"
   xmlns:svg="http://www.w3.org/2000/svg">
  <defs
     id="defs1" />
  <g
     id="layer1">
    <rect
       style="display:none;fill:currentColor;stroke-width:2.64583;stroke-linecap:round;stroke-linejoin:round"
       id="rect1"
       width="793.75"
       height="793.75"
       x="0"
       y="0" />
    <path
       id="path3"
       style="display:inline;fill:currentColor;stroke-width:0.264421"
       d="m 357.84434,458.97607 -9.30589,53.48342 a 260.01471,260.01471 0 0 0 -64.26738,17.5102 l -34.61189,-41.43881 -43.8057,25.29153 18.68203,50.97091 a 260.01471,260.01471 0 0 0 -46.9013,47.2974 l -50.6946,-18.58078 -25.29102,43.8062 41.66502,34.80088 a 260.01471,260.01471 0 0 0 -16.96946,64.41202 l -53.192677,9.25528 V 793.75 H 204.03403 A 181.71575,181.71575 0 0 1 202.47746,770.01816 181.71575,181.71575 0 0 1 384.19304,588.30207 181.71575,181.71575 0 0 1 565.90913,770.01816 181.71575,181.71575 0 0 1 564.35306,793.75 h 130.88206 v -50.08106 l -53.48343,-9.30588 A 260.01471,260.01471 0 0 0 624.2415,670.09617 l 41.43881,-34.6124 -25.29152,-43.80568 -50.97092,18.68253 a 260.01471,260.01471 0 0 0 -47.2974,-46.9018 l 18.58079,-50.6941 -43.8062,-25.29154 -34.80091,41.66502 a 260.01471,260.01471 0 0 0 -64.412,-16.96947 l -9.25528,-53.19266 z m 26.34922,143.64246 c -92.33398,0 -167.39962,75.06564 -167.39962,167.39963 0,8.05474 0.57124,15.9783 1.67535,23.73184 h 20.20452 c -1.24535,-7.7242 -1.89228,-15.65127 -1.89228,-23.73184 0,-81.53179 65.88026,-147.41203 147.41203,-147.41203 81.53177,0 147.41201,65.88024 147.41201,147.41203 0,8.08057 -0.64693,16.00764 -1.89226,23.73184 h 20.20449 c 1.10413,-7.75354 1.67538,-15.6771 1.67538,-23.73184 0,-92.33399 -75.06565,-167.39961 -167.39962,-167.39963 z" />
    <path
       id="rect2"
       style="fill:currentColor;stroke:none;stroke-width:2.37864;stroke-linecap:round;stroke-linejoin:round"
       d="M 205.85358 116.74998 C 284.73776 283.6353 310.72895 247.35699 306.42729 311.05181 C 302.12565 374.74665 246.20304 450.19369 205.85358 513.82238 C 294.22374 484.92671 328.1422 364.93655 383.88923 363.5468 C 439.63627 362.15705 500.25138 508.29144 561.04844 513.82238 C 522.78425 448.4311 468.15717 370.54351 466.89036 306.5539 C 465.62356 242.5643 498.32783 283.60198 561.04844 116.74998 C 473.14459 205.5606 426.12325 209.54292 381.85421 209.42701 A 14.897879 13.656388 0 0 1 396.66726 223.08302 A 14.897879 13.656388 0 0 1 381.76946 236.73955 L 406.40827 295.1794 L 381.76946 318.79346 L 357.13066 295.1794 L 381.76946 236.73955 A 14.897879 13.656388 0 0 1 366.87166 223.08302 A 14.897879 13.656388 0 0 1 381.76946 209.42649 C 337.47572 209.30531 295.91393 205.13245 205.85358 116.74998 z " />
    <circle
       style="fill:currentColor;stroke:none;stroke-width:2.64583;stroke-linecap:round;stroke-linejoin:round"
       id="path2"
       cx="379.242"
       cy="116.74997"
       r="77.285683" />
  </g>
</svg>
