<?xml version="1.0" encoding="utf-8"?>
<svg version="1.1" xmlns="http://www.w3.org/2000/svg" xmlns:xlink="http://www.w3.org/1999/xlink" x="0px" y="0px"
	 viewBox="0 0 3000 3000" style="enable-background:new 0 0 3000 3000;" xml:space="preserve">
<style type="text/css">
	.st1{fill:#FFFFFF;}
	.st2{font-family:'Lato-BoldItalic';}
	.st3{font-size:470.9661px;}
	.st4{fill:none;stroke:#FFFFFF;stroke-width:64.103;stroke-linecap:round;stroke-miterlimit:10;}
	.st5{fill:none;stroke:#FFFFFF;stroke-width:32.0515;stroke-linecap:round;stroke-miterlimit:10;}
	.st6{fill:none;stroke:#FFFFFF;stroke-width:62.8878;stroke-linecap:round;stroke-miterlimit:10;}
	.st7{fill:none;stroke:#FFFFFF;stroke-width:55.8751;stroke-linecap:round;stroke-miterlimit:10;}
	.st8{fill:none;stroke:#FFFFFF;stroke-width:37.6512;stroke-linecap:round;stroke-miterlimit:10;}
</style>
<g id="Layer_3">
	<rect x="976.8" y="1243.81" class="st1" width="560.94" height="769.57"/>
	<rect x="978.85" y="2050.58" class="st1" width="133.84" height="314.92"/>
	<rect x="1402.01" y="2048.98" class="st1" width="133.84" height="314.92"/>
	<path class="st1" d="M1259.98,753.24c-306.89,4.01-287.66,431.89-287.66,431.89l577.73-5.61
		C1550.04,1179.52,1566.87,749.23,1259.98,753.24z M1110.54,1100.19c-31.2,0-56.49-25.29-56.49-56.49
		c0-31.2,25.29-56.49,56.49-56.49c31.2,0,56.49,25.29,56.49,56.49C1167.03,1074.9,1141.74,1100.19,1110.54,1100.19z
		 M1409.42,1096.19c-31.2,0-56.49-25.29-56.49-56.49c0-31.2,25.29-56.49,56.49-56.49c31.2,0,56.49,25.29,56.49,56.49
		C1465.91,1070.9,1440.62,1096.19,1409.42,1096.19z"/>
	<line class="st4" x1="403" y1="1890.66" x2="1830.89" y2="877.04"/>
	<line class="st4" x1="1253.97" y1="781.68" x2="1253.97" y2="611.01"/>
	<circle class="st1" cx="1252.36" cy="628.64" r="62.5"/>
	<circle class="st1" cx="1919.84" cy="803.32" r="62.5"/>
	<line class="st5" x1="1935.06" y1="789.69" x2="2404.62" y2="398.67"/>
	<line class="st5" x1="1960.84" y1="777.7" x2="2548.71" y2="610.98"/>
	<line class="st5" x1="1973.63" y1="791.31" x2="2584" y2="820.13"/>
	<line class="st5" x1="1947.12" y1="767.91" x2="2217.88" y2="220.12"/>
	<line class="st5" x1="1950.03" y1="770.35" x2="1979.39" y2="160"/>
	<path class="st6" d="M611.33,1738.42c0,0-122.52-455.25,391.83-465.55c444.03-8.89,520.53,2.03,534.46,3.21
		c2.12,0.18,7.98,6.49,9.88,5.54c33.39-16.76,438.04,101.03,295.41-402.98"/>
	<path class="st6" d="M1888.59,389.85c0,0,234.62-41.53,383.82,125c158.66,177.08,116.19,352.57,116.19,352.57"/>
	<path class="st7" d="M1851.48,524.17c0,0,213.82-61.94,329.48,71.68c122.99,142.09,66.6,303.92,66.6,303.92"/>
	<path class="st8" d="M1857.5,646.41c0,0,144.17-42.08,221.89,47.78c82.65,95.56,44.4,204.7,44.4,204.7"/>
</g>
</svg>
