<?xml version="1.0" encoding="UTF-8" standalone="no"?>
<svg
   version="1.1"
   x="0px"
   y="0px"
   viewBox="0 0 2229.0771 2221.5259"
   xml:space="preserve"
   id="svg39"
   sodipodi:docname="muckrAIkers logo final 01_jacob-edit_crop.svg"
   width="2229.0771"
   height="2221.5259"
   inkscape:version="1.1.1 (3bf5ae0d25, 2021-09-20)"
   xmlns:inkscape="http://www.inkscape.org/namespaces/inkscape"
   xmlns:sodipodi="http://sodipodi.sourceforge.net/DTD/sodipodi-0.dtd"
   xmlns="http://www.w3.org/2000/svg"
   xmlns:svg="http://www.w3.org/2000/svg"><defs
   id="defs43" /><sodipodi:namedview
   id="namedview41"
   pagecolor="#505050"
   bordercolor="#eeeeee"
   borderopacity="1"
   inkscape:pageshadow="0"
   inkscape:pageopacity="0"
   inkscape:pagecheckerboard="0"
   showgrid="false"
   inkscape:zoom="0.23966667"
   inkscape:cx="294.15855"
   inkscape:cy="1322.6704"
   inkscape:window-width="2560"
   inkscape:window-height="1377"
   inkscape:window-x="-8"
   inkscape:window-y="-8"
   inkscape:window-maximized="1"
   inkscape:current-layer="svg39" />
<style
   type="text/css"
   id="style2">
	.st1{fill:#FFFFFF;}
	.st2{font-family:'Lato-BoldItalic';}
	.st3{font-size:470.9661px;}
	.st4{fill:none;stroke:#FFFFFF;stroke-width:64.103;stroke-linecap:round;stroke-miterlimit:10;}
	.st5{fill:none;stroke:#FFFFFF;stroke-width:32.0515;stroke-linecap:round;stroke-miterlimit:10;}
	.st6{fill:none;stroke:#FFFFFF;stroke-width:62.8878;stroke-linecap:round;stroke-miterlimit:10;}
	.st7{fill:none;stroke:#FFFFFF;stroke-width:55.8751;stroke-linecap:round;stroke-miterlimit:10;}
	.st8{fill:none;stroke:#FFFFFF;stroke-width:37.6512;stroke-linecap:round;stroke-miterlimit:10;}
</style>
<g
   id="Layer_3"
   transform="translate(-370.9485,-143.97425)">
	<rect
   x="976.79999"
   y="1243.8101"
   class="st1"
   width="560.94"
   height="769.57001"
   id="rect4" />
	<rect
   x="978.84998"
   y="2050.5801"
   class="st1"
   width="133.84"
   height="314.92001"
   id="rect6" />
	<rect
   x="1402.01"
   y="2048.98"
   class="st1"
   width="133.84"
   height="314.92001"
   id="rect8" />
	<path
   class="st1"
   d="m 1259.98,753.24 c -306.89,4.01 -287.66,431.89 -287.66,431.89 l 577.73,-5.61 c -0.01,0 16.82,-430.29 -290.07,-426.28 z m -149.44,346.95 c -31.2,0 -56.49,-25.29 -56.49,-56.49 0,-31.2 25.29,-56.49 56.49,-56.49 31.2,0 56.49,25.29 56.49,56.49 0,31.2 -25.29,56.49 -56.49,56.49 z m 298.88,-4 c -31.2,0 -56.49,-25.29 -56.49,-56.49 0,-31.2 25.29,-56.49 56.49,-56.49 31.2,0 56.49,25.29 56.49,56.49 0,31.2 -25.29,56.49 -56.49,56.49 z"
   id="path10" />
	<line
   class="st4"
   x1="403"
   y1="1890.66"
   x2="1830.89"
   y2="877.03998"
   id="line12" />
	<line
   class="st4"
   x1="1253.97"
   y1="781.67999"
   x2="1253.97"
   y2="611.01001"
   id="line14" />
	<circle
   class="st1"
   cx="1252.36"
   cy="628.64001"
   r="62.5"
   id="circle16" />
	<circle
   class="st1"
   cx="1919.84"
   cy="803.32001"
   r="62.5"
   id="circle18" />
	<line
   class="st5"
   x1="1935.0601"
   y1="789.69"
   x2="2404.6201"
   y2="398.67001"
   id="line20" />
	<line
   class="st5"
   x1="1960.84"
   y1="777.70001"
   x2="2548.71"
   y2="610.97998"
   id="line22" />
	<line
   class="st5"
   x1="1973.63"
   y1="791.31"
   x2="2584"
   y2="820.13"
   id="line24" />
	<line
   class="st5"
   x1="1947.12"
   y1="767.90997"
   x2="2217.8799"
   y2="220.12"
   id="line26" />
	<line
   class="st5"
   x1="1950.03"
   y1="770.34998"
   x2="1979.39"
   y2="160"
   id="line28" />
	<path
   class="st6"
   d="m 611.33,1738.42 c 0,0 -122.52,-455.25 391.83,-465.55 444.03,-8.89 520.53,2.03 534.46,3.21 2.12,0.18 7.98,6.49 9.88,5.54 33.39,-16.76 438.04,101.03 295.41,-402.98"
   id="path30" />
	<path
   class="st6"
   d="m 1888.59,389.85 c 0,0 234.62,-41.53 383.82,125 158.66,177.08 116.19,352.57 116.19,352.57"
   id="path32" />
	<path
   class="st7"
   d="m 1851.48,524.17 c 0,0 213.82,-61.94 329.48,71.68 122.99,142.09 66.6,303.92 66.6,303.92"
   id="path34" />
	<path
   class="st8"
   d="m 1857.5,646.41 c 0,0 144.17,-42.08 221.89,47.78 82.65,95.56 44.4,204.7 44.4,204.7"
   id="path36" />
</g>
</svg>
