<svg xmlns="http://www.w3.org/2000/svg" viewBox="0 0 2250 2275">
  <style>
    .st1{fill:#fff}
  </style>
  <g id="Layer_3">
    <path class="st1" d="M609.8 1143.81h560.94v769.57H609.8zm2.05 806.77h133.84v314.92H611.85zm423.16-1.6h133.84v314.92h-133.84zM892.98 653.24c-306.89 4.01-287.66 431.89-287.66 431.89l577.73-5.61c-.01 0 16.82-430.29-290.07-426.28m-149.44 346.95c-31.2 0-56.49-25.29-56.49-56.49s25.29-56.49 56.49-56.49 56.49 25.29 56.49 56.49-22.29 56.49-66.49 56.49zm298.88-4c-31.2 0-56.49-25.29-56.49-56.49s25.29-56.49 56.49-56.49 56.49 25.29 56.49 56.49-25.29 56.49-56.49 56.49"/>
    <path d="M36 1790.66 1463.89 777.04m-576.92-95.36V511.01" style="fill:none;stroke:#fff;stroke-width:64.103;stroke-linecap:round;stroke-miterlimit:10"/>
    <circle class="st1" cx="885.36" cy="528.64" r="62.5"/>
    <circle class="st1" cx="1552.84" cy="703.32" r="62.5"/>
    <path d="m1568.06 689.69 469.56-391.02M1593.84 677.7l587.87-166.72m-575.08 180.33L2217 720.13m-636.88-52.22 270.76-547.79m-267.85 550.23L1612.39 60" style="fill:none;stroke:#fff;stroke-linecap:round;stroke-miterlimit:10;stroke-width:32.0515"/>
    <path d="M244.33 1638.42s-122.52-455.25 391.83-465.55c444.03-8.89 520.53 2.03 534.46 3.21 2.12.18 7.98 6.49 9.88 5.54 33.39-16.76 438.04 101.03 295.41-402.98m45.68-488.79s234.62-41.53 383.82 125c158.66 177.08 116.19 352.57 116.19 352.57" style="fill:none;stroke:#fff;stroke-linecap:round;stroke-miterlimit:10;stroke-width:62.8878"/>
    <path d="M1484.48 424.17s213.82-61.94 329.48 71.68c122.99 142.09 66.6 303.92 66.6 303.92" style="fill:none;stroke:#fff;stroke-width:55.8751;stroke-linecap:round;stroke-miterlimit:10"/>
    <path d="M1490.5 546.41s144.17-42.08 221.89 47.78c82.65 95.56 44.4 204.7 44.4 204.7" style="fill:none;stroke:#fff;stroke-width:37.6512;stroke-linecap:round;stroke-miterlimit:10"/>
  </g>
</svg>